<svg preserveAspectRatio="none" width="100%" height="100%" overflow="visible" style="display: block;" viewBox="0 0 22 24" fill="none" xmlns="http://www.w3.org/2000/svg">
<g id="Container">
<path id="Icon" d="M14.0556 19.2C13.2 19.2 12.4769 18.91 11.8861 18.33C11.2954 17.75 11 17.04 11 16.2C11 15.36 11.2954 14.65 11.8861 14.07C12.4769 13.49 13.2 13.2 14.0556 13.2C14.9111 13.2 15.6343 13.49 16.225 14.07C16.8157 14.65 17.1111 15.36 17.1111 16.2C17.1111 17.04 16.8157 17.75 16.225 18.33C15.6343 18.91 14.9111 19.2 14.0556 19.2ZM2.44444 24C1.77222 24 1.19676 23.765 0.718056 23.295C0.239352 22.825 0 22.26 0 21.6V4.8C0 4.14 0.239352 3.575 0.718056 3.105C1.19676 2.635 1.77222 2.4 2.44444 2.4H3.66667V0H6.11111V2.4H15.8889V0H18.3333V2.4H19.5556C20.2278 2.4 20.8032 2.635 21.2819 3.105C21.7606 3.575 22 4.14 22 4.8V21.6C22 22.26 21.7606 22.825 21.2819 23.295C20.8032 23.765 20.2278 24 19.5556 24H2.44444ZM2.44444 21.6H19.5556V9.6H2.44444V21.6ZM2.44444 7.2H19.5556V4.8H2.44444V7.2Z" fill="#823B18"/>
</g>
</svg>
