<svg preserveAspectRatio="none" width="100%" height="100%" overflow="visible" style="display: block;" viewBox="0 0 45 45" fill="none" xmlns="http://www.w3.org/2000/svg">
<g id="Container">
<path id="Icon" d="M5 45C3.625 45 2.44792 44.5104 1.46875 43.5312C0.489583 42.5521 0 41.375 0 40V30H5V40H40V5H5V15H0V5C0 3.625 0.489583 2.44792 1.46875 1.46875C2.44792 0.489583 3.625 0 5 0H40C41.375 0 42.5521 0.489583 43.5312 1.46875C44.5104 2.44792 45 3.625 45 5V40C45 41.375 44.5104 42.5521 43.5312 43.5312C42.5521 44.5104 41.375 45 40 45H5ZM18.75 35L15.25 31.375L21.625 25H0V20H21.625L15.25 13.625L18.75 10L31.25 22.5L18.75 35Z" fill="#823B18"/>
</g>
</svg>
