<svg preserveAspectRatio="none" width="100%" height="100%" overflow="visible" style="display: block;" viewBox="0 0 47 45" fill="none" xmlns="http://www.w3.org/2000/svg">
<g id="Container">
<path id="Icon" d="M11.75 45C10.1181 45 8.7309 44.4293 7.58854 43.288C6.44618 42.1467 5.875 40.7609 5.875 39.1304C5.875 37.5 6.44618 36.1141 7.58854 34.9728C8.7309 33.8315 10.1181 33.2609 11.75 33.2609C12.2069 33.2609 12.6313 33.3098 13.0229 33.4076C13.4146 33.5054 13.7899 33.6359 14.149 33.7989L16.9396 30.3261C16.0257 29.3152 15.3892 28.1739 15.0302 26.9022C14.6712 25.6304 14.5896 24.3587 14.7854 23.087L10.8198 21.7663C10.2649 22.5815 9.56319 23.2337 8.71458 23.7228C7.86597 24.212 6.91944 24.4565 5.875 24.4565C4.24306 24.4565 2.8559 23.8859 1.71354 22.7446C0.571181 21.6033 0 20.2174 0 18.587C0 16.9565 0.571181 15.5707 1.71354 14.4293C2.8559 13.288 4.24306 12.7174 5.875 12.7174C7.50694 12.7174 8.8941 13.288 10.0365 14.4293C11.1788 15.5707 11.75 16.9565 11.75 18.587C11.75 18.6522 11.75 18.7174 11.75 18.7826C11.75 18.8478 11.75 18.913 11.75 18.9783L15.7156 20.3478C16.3684 19.1739 17.2415 18.1793 18.3349 17.3641C19.4283 16.5489 20.6604 16.0272 22.0313 15.7989V11.5435C20.7583 11.1848 19.7057 10.4918 18.8734 9.46467C18.0411 8.4375 17.625 7.23913 17.625 5.86957C17.625 4.23913 18.1962 2.85326 19.3385 1.71196C20.4809 0.570652 21.8681 0 23.5 0C25.1319 0 26.5191 0.570652 27.6615 1.71196C28.8038 2.85326 29.375 4.23913 29.375 5.86957C29.375 7.23913 28.9507 8.4375 28.1021 9.46467C27.2535 10.4918 26.209 11.1848 24.9688 11.5435V15.7989C26.3396 16.0272 27.5717 16.5489 28.6651 17.3641C29.7585 18.1793 30.6316 19.1739 31.2844 20.3478L35.25 18.9783C35.25 18.913 35.25 18.8478 35.25 18.7826C35.25 18.7174 35.25 18.6522 35.25 18.587C35.25 16.9565 35.8212 15.5707 36.9635 14.4293C38.1059 13.288 39.4931 12.7174 41.125 12.7174C42.7569 12.7174 44.1441 13.288 45.2865 14.4293C46.4288 15.5707 47 16.9565 47 18.587C47 20.2174 46.4288 21.6033 45.2865 22.7446C44.1441 23.8859 42.7569 24.4565 41.125 24.4565C40.0806 24.4565 39.1259 24.212 38.2609 23.7228C37.396 23.2337 36.7024 22.5815 36.1802 21.7663L32.2146 23.087C32.4104 24.3587 32.3288 25.6223 31.9698 26.8777C31.6108 28.1332 30.9743 29.2826 30.0604 30.3261L32.851 33.75C33.2101 33.587 33.5854 33.4647 33.9771 33.3832C34.3688 33.3016 34.7931 33.2609 35.25 33.2609C36.8819 33.2609 38.2691 33.8315 39.4115 34.9728C40.5538 36.1141 41.125 37.5 41.125 39.1304C41.125 40.7609 40.5538 42.1467 39.4115 43.288C38.2691 44.4293 36.8819 45 35.25 45C33.6181 45 32.2309 44.4293 31.0885 43.288C29.9462 42.1467 29.375 40.7609 29.375 39.1304C29.375 38.4783 29.4811 37.8505 29.6932 37.2473C29.9054 36.644 30.191 36.0978 30.55 35.6087L27.7594 32.1359C26.4212 32.8859 24.9932 33.2609 23.4755 33.2609C21.9578 33.2609 20.5299 32.8859 19.1917 32.1359L16.45 35.6087C16.809 36.0978 17.0946 36.644 17.3068 37.2473C17.5189 37.8505 17.625 38.4783 17.625 39.1304C17.625 40.7609 17.0538 42.1467 15.9115 43.288C14.7691 44.4293 13.3819 45 11.75 45ZM5.875 20.5435C6.42986 20.5435 6.89497 20.356 7.27031 19.981C7.64566 19.606 7.83333 19.1413 7.83333 18.587C7.83333 18.0326 7.64566 17.5679 7.27031 17.1929C6.89497 16.8179 6.42986 16.6304 5.875 16.6304C5.32014 16.6304 4.85503 16.8179 4.47969 17.1929C4.10434 17.5679 3.91667 18.0326 3.91667 18.587C3.91667 19.1413 4.10434 19.606 4.47969 19.981C4.85503 20.356 5.32014 20.5435 5.875 20.5435ZM11.75 41.087C12.3049 41.087 12.77 40.8995 13.1453 40.5245C13.5207 40.1495 13.7083 39.6848 13.7083 39.1304C13.7083 38.5761 13.5207 38.1114 13.1453 37.7364C12.77 37.3614 12.3049 37.1739 11.75 37.1739C11.1951 37.1739 10.73 37.3614 10.3547 37.7364C9.97934 38.1114 9.79167 38.5761 9.79167 39.1304C9.79167 39.6848 9.97934 40.1495 10.3547 40.5245C10.73 40.8995 11.1951 41.087 11.75 41.087ZM23.5 7.82609C24.0549 7.82609 24.52 7.63859 24.8953 7.26359C25.2707 6.88859 25.4583 6.42391 25.4583 5.86957C25.4583 5.31522 25.2707 4.85054 24.8953 4.47554C24.52 4.10054 24.0549 3.91304 23.5 3.91304C22.9451 3.91304 22.48 4.10054 22.1047 4.47554C21.7293 4.85054 21.5417 5.31522 21.5417 5.86957C21.5417 6.42391 21.7293 6.88859 22.1047 7.26359C22.48 7.63859 22.9451 7.82609 23.5 7.82609ZM23.5 29.3478C24.8708 29.3478 26.0295 28.875 26.976 27.9293C27.9226 26.9837 28.3958 25.8261 28.3958 24.4565C28.3958 23.087 27.9226 21.9293 26.976 20.9837C26.0295 20.038 24.8708 19.5652 23.5 19.5652C22.1292 19.5652 20.9705 20.038 20.024 20.9837C19.0774 21.9293 18.6042 23.087 18.6042 24.4565C18.6042 25.8261 19.0774 26.9837 20.024 27.9293C20.9705 28.875 22.1292 29.3478 23.5 29.3478ZM35.25 41.087C35.8049 41.087 36.27 40.8995 36.6453 40.5245C37.0207 40.1495 37.2083 39.6848 37.2083 39.1304C37.2083 38.5761 37.0207 38.1114 36.6453 37.7364C36.27 37.3614 35.8049 37.1739 35.25 37.1739C34.6951 37.1739 34.23 37.3614 33.8547 37.7364C33.4793 38.1114 33.2917 38.5761 33.2917 39.1304C33.2917 39.6848 33.4793 40.1495 33.8547 40.5245C34.23 40.8995 34.6951 41.087 35.25 41.087ZM41.125 20.5435C41.6799 20.5435 42.145 20.356 42.5203 19.981C42.8957 19.606 43.0833 19.1413 43.0833 18.587C43.0833 18.0326 42.8957 17.5679 42.5203 17.1929C42.145 16.8179 41.6799 16.6304 41.125 16.6304C40.5701 16.6304 40.105 16.8179 39.7297 17.1929C39.3543 17.5679 39.1667 18.0326 39.1667 18.587C39.1667 19.1413 39.3543 19.606 39.7297 19.981C40.105 20.356 40.5701 20.5435 41.125 20.5435Z" fill="#823B18"/>
</g>
</svg>
