<svg preserveAspectRatio="none" width="100%" height="100%" overflow="visible" style="display: block;" viewBox="0 0 50 45" fill="none" xmlns="http://www.w3.org/2000/svg">
<g id="Container">
<path id="Icon" d="M5 45C3.625 45 2.44792 44.5104 1.46875 43.5312C0.489583 42.5521 0 41.375 0 40V0L4.1875 4.1875L8.3125 0L12.5 4.1875L16.6875 0L20.8125 4.1875L25 0L29.1875 4.1875L33.3125 0L37.5 4.1875L41.6875 0L45.8125 4.1875L50 0V40C50 41.375 49.5104 42.5521 48.5312 43.5312C47.5521 44.5104 46.375 45 45 45H5V45M5 40H22.5V25H5V40V40V40V40M27.5 40H45V40V40V35H27.5V40V40M27.5 30H45V25H27.5V30V30M5 20H45V12.5H5V20V20" fill="#823B18"/>
</g>
</svg>
