<svg preserveAspectRatio="xMidYMid meet" width="100%" height="100%" overflow="visible" style="display: block;" viewBox="0 0 48 48" fill="none" xmlns="http://www.w3.org/2000/svg">
<path d="M21 4H27L28.4 10.1C29.5 10.5 30.5 10.9 31.5 11.5L36.8 8.2L41 12.4L37.7 17.7C38.3 18.7 38.8 19.8 39.1 20.9L45 22.4V28.4L39 29.8C38.7 30.9 38.2 32 37.6 33L40.8 38.2L36.6 42.4L31.4 39.2C30.4 39.8 29.4 40.3 28.2 40.6L26.8 46H20.8L19.5 40.5C18.4 40.1 17.3 39.7 16.3 39L11.2 42.2L7 38L10.2 32.9C9.6 31.8 9.1 30.8 8.8 29.6L3 28.2V22.2L8.8 20.8C9.1 19.7 9.6 18.6 10.2 17.6L7 12.4L11.2 8.2L16.5 11.5C17.5 10.9 18.5 10.4 19.6 10.1L21 4Z" stroke="#823B18" stroke-width="4" stroke-linejoin="round"/>
<circle cx="24" cy="25" r="7" stroke="#823B18" stroke-width="4"/>
</svg>
