<svg preserveAspectRatio="xMidYMid meet" width="100%" height="100%" overflow="visible" style="display: block;" viewBox="0 0 24 24" fill="none" xmlns="http://www.w3.org/2000/svg">
<path d="M10.5 2H13.5L14.2 5.1C14.8 5.3 15.3 5.6 15.8 5.9L18.5 4.2L20.6 6.3L18.9 9C19.2 9.5 19.5 10.1 19.7 10.7L22.5 11.4V14.4L19.6 15.1C19.4 15.7 19.2 16.2 18.8 16.8L20.4 19.4L18.3 21.5L15.7 19.9C15.2 20.2 14.6 20.5 14 20.7L13.3 23H10.3L9.7 20.7C9 20.5 8.5 20.2 7.9 19.9L5.4 21.5L3.3 19.4L4.9 16.8C4.6 16.3 4.3 15.7 4.1 15.1L1.5 14.4V11.4L4.1 10.8C4.3 10.2 4.5 9.6 4.9 9.1L3.3 6.4L5.4 4.3L8 5.9C8.5 5.6 9.1 5.3 9.7 5.1L10.5 2Z" stroke="#3F471E" stroke-width="2" stroke-linejoin="round"/>
<circle cx="12" cy="13" r="3.5" stroke="#3F471E" stroke-width="2"/>
</svg>
