<svg preserveAspectRatio="none" width="100%" height="100%" overflow="visible" style="display: block;" viewBox="0 0 45 45" fill="none" xmlns="http://www.w3.org/2000/svg">
<g id="Container">
<path id="Icon" d="M13.5125 45C12.2738 45 11.2135 44.5594 10.3314 43.6781C9.44936 42.7969 9.00832 41.7375 9.00832 40.5C9.00832 39.2625 9.44936 38.2031 10.3314 37.3219C11.2135 36.4406 12.2738 36 13.5125 36C14.7511 36 15.8115 36.4406 16.6935 37.3219C17.5756 38.2031 18.0166 39.2625 18.0166 40.5C18.0166 41.7375 17.5756 42.7969 16.6935 43.6781C15.8115 44.5594 14.7511 45 13.5125 45ZM36.0333 45C34.7946 45 33.7343 44.5594 32.8522 43.6781C31.9702 42.7969 31.5291 41.7375 31.5291 40.5C31.5291 39.2625 31.9702 38.2031 32.8522 37.3219C33.7343 36.4406 34.7946 36 36.0333 36C37.2719 36 38.3323 36.4406 39.2144 37.3219C40.0964 38.2031 40.5375 39.2625 40.5375 40.5C40.5375 41.7375 40.0964 42.7969 39.2144 43.6781C38.3323 44.5594 37.2719 45 36.0333 45ZM11.5982 9L17.0032 20.25H32.7678L38.961 9H11.5982ZM9.45874 4.5H42.6769C43.5402 4.5 44.1971 4.88437 44.6475 5.65312C45.0979 6.42187 45.1167 7.2 44.7038 7.9875L36.7089 22.3875C36.296 23.1375 35.7424 23.7187 35.048 24.1312C34.3536 24.5437 33.5935 24.75 32.7678 24.75H15.9898L13.5125 29.25H40.5375V33.75H13.5125C11.8234 33.75 10.5472 33.0094 9.68395 31.5281C8.82065 30.0469 8.78311 28.575 9.57134 27.1125L12.6117 21.6L4.50416 4.5H0V0H7.31926L9.45874 4.5Z" fill="#823B18"/>
</g>
</svg>
