<svg preserveAspectRatio="none" width="100%" height="100%" overflow="visible" style="display: block;" viewBox="0 0 50 50" fill="none" xmlns="http://www.w3.org/2000/svg">
<g id="Container">
<path id="Icon" d="M10 30H30V25H10V30V30M10 22.5H40V17.5H10V22.5V22.5M10 15H40V10H10V15V15M0 50V5C0 3.625 0.489583 2.44792 1.46875 1.46875C2.44792 0.489583 3.625 0 5 0H45C46.375 0 47.5521 0.489583 48.5312 1.46875C49.5104 2.44792 50 3.625 50 5V35C50 36.375 49.5104 37.5521 48.5312 38.5312C47.5521 39.5104 46.375 40 45 40H10L0 50V50M7.875 35H45V35V35V5V5V5H5V5V5V37.8125L7.875 35V35M5 35V35V5V5V5V5V5V5V35V35V35V35V35" fill="#823B18"/>
</g>
</svg>
